<?xml version="1.0" standalone="no"?>
<!DOCTYPE svg PUBLIC "-//W3C//DTD SVG 20010904//EN"
 "http://www.w3.org/TR/2001/REC-SVG-20010904/DTD/svg10.dtd">
<svg version="1.0" xmlns="http://www.w3.org/2000/svg"
 width="400.000000pt" height="400.000000pt" viewBox="0 0 400.000000 400.000000"
 preserveAspectRatio="xMidYMid meet">
<metadata>
Created by potrace 1.16, written by Peter Selinger 2001-2019
</metadata>
<g transform="translate(0.000000,400.000000) scale(0.100000,-0.100000)"
fill="#000000" stroke="none">
<path d="M603 3956 c1 -24 5 -42 10 -39 4 2 7 -1 7 -7 0 -6 4 -9 8 -6 4 2 14
0 22 -6 12 -8 12 -9 -2 -4 -21 6 -23 -4 -5 -23 7 -9 7 -11 1 -8 -7 4 -15 0
-18 -9 -9 -23 -8 -27 9 -20 8 3 15 1 15 -4 0 -6 -7 -10 -17 -10 -9 0 -13 -3
-10 -7 4 -3 1 -13 -6 -21 -10 -13 -9 -15 5 -9 13 4 15 2 11 -10 -5 -12 -3 -14
7 -8 10 6 12 4 7 -9 -5 -14 -3 -17 8 -12 9 3 15 0 15 -10 0 -8 -4 -12 -10 -9
-5 3 -10 -1 -10 -10 0 -10 5 -13 12 -9 7 5 9 2 6 -7 -4 -10 4 -14 29 -15 34
-1 53 -16 53 -41 0 -7 -9 -13 -20 -13 -17 0 -19 -3 -11 -19 6 -10 8 -21 5 -23
-2 -3 7 -5 22 -4 20 1 28 -4 30 -21 2 -12 -3 -23 -12 -27 -18 -7 -37 2 -29 14
5 9 -25 24 -33 16 -11 -12 10 -37 43 -50 23 -10 35 -22 35 -35 0 -11 5 -23 10
-26 6 -4 8 -11 5 -16 -5 -8 32 -14 58 -10 4 0 7 -3 7 -9 0 -5 -7 -10 -15 -10
-9 0 -15 -9 -15 -22 0 -12 -7 -29 -16 -39 -22 -24 -9 -39 29 -35 19 2 39 -2
50 -12 14 -12 17 -13 18 -1 1 8 2 21 3 29 1 17 46 27 46 11 0 -6 -5 -11 -11
-11 -6 0 -8 -9 -3 -22 4 -13 7 -29 7 -35 0 -10 3 -10 16 0 12 9 13 9 7 0 -4
-8 -2 -13 7 -13 22 0 26 10 15 36 -14 31 -1 45 18 20 13 -19 15 -19 27 -2 12
17 47 14 47 -5 0 -5 5 -9 11 -9 6 0 9 8 6 19 -3 14 0 17 12 14 10 -2 23 3 30
11 8 9 18 16 24 16 6 0 21 9 33 21 21 20 23 20 48 4 14 -10 26 -21 26 -26 0
-5 4 -9 10 -9 5 0 9 5 7 12 -1 7 5 12 13 13 9 0 15 12 16 33 1 25 -2 32 -12
28 -11 -4 -11 -2 -1 14 13 22 43 27 51 8 3 -9 9 -7 20 6 14 17 18 18 29 5 18
-22 48 -44 46 -33 -4 20 2 24 21 14 11 -6 18 -15 15 -20 -3 -5 4 -7 16 -5 16
3 19 0 15 -12 -5 -13 -4 -14 9 -3 13 11 14 10 9 -3 -3 -9 0 -24 6 -34 11 -17
11 -17 6 0 -6 20 19 53 28 38 4 -5 0 -11 -6 -14 -7 -2 -10 -7 -7 -11 3 -3 14
4 25 16 10 12 14 18 8 15 -15 -9 -27 20 -12 29 7 4 8 3 4 -4 -4 -7 -2 -12 3
-12 6 0 11 3 12 8 0 4 2 16 4 26 2 11 -1 28 -6 39 -9 17 -8 18 11 12 17 -6 21
-4 14 6 -10 18 -13 49 -3 43 4 -2 10 0 13 5 4 5 2 12 -3 16 -18 10 0 34 27 37
19 2 27 9 26 21 -1 10 5 17 17 17 11 0 16 5 13 14 -8 21 34 27 53 8 24 -24 45
-25 32 -1 -8 15 -5 24 16 45 17 17 25 34 22 45 -3 10 3 30 14 43 10 13 19 29
19 35 0 6 4 11 9 11 5 0 7 9 4 20 -3 11 -9 20 -12 20 -4 0 -8 7 -8 15 0 8 4
12 9 9 4 -3 9 1 9 8 3 34 5 38 14 35 6 -1 9 -8 9 -14 -1 -7 2 -10 7 -7 5 2 15
-11 23 -31 14 -33 32 -52 20 -20 -4 10 0 15 14 15 15 0 19 5 15 20 -4 14 -14
20 -35 20 -18 0 -27 4 -23 10 4 6 1 17 -5 25 -11 13 -107 15 -671 15 l-658 0
2 -44z"/>
<path d="M3955 3952 c-12 -1 -28 -15 -38 -30 -9 -15 -17 -21 -17 -13 0 11 -3
11 -15 1 -8 -7 -12 -16 -9 -21 3 -5 0 -9 -7 -9 -9 0 -9 -4 1 -15 6 -8 8 -20 4
-27 -4 -7 3 -3 15 9 31 32 61 15 40 -22 -4 -5 -5 -17 -4 -26 2 -12 -4 -15 -27
-13 -21 3 -27 0 -22 -9 4 -6 -1 -4 -12 5 -18 15 -47 12 -45 -6 2 -15 0 -16
-16 -7 -21 10 -42 -7 -35 -28 3 -10 0 -12 -12 -8 -9 4 -16 2 -16 -3 0 -6 4
-10 9 -10 5 0 7 -17 6 -37 l-3 -38 13 30 c14 31 13 31 30 -21 3 -9 0 -23 -6
-30 -9 -11 -15 -11 -34 2 -13 9 -29 13 -35 9 -14 -9 -13 8 3 24 10 10 8 11 -8
5 -18 -7 -18 -6 -6 9 7 9 17 15 21 12 4 -2 7 5 6 17 -2 33 -23 32 -31 -1 -4
-17 -10 -31 -15 -31 -4 0 -6 -9 -3 -21 4 -12 -1 -26 -13 -37 -19 -17 -54 -26
-54 -13 0 9 -48 6 -57 -4 -5 -4 -1 -5 7 -1 9 5 8 2 -2 -7 -16 -13 -16 -15 8
-26 26 -11 49 -7 39 9 -6 10 15 8 33 -3 6 -5 12 -13 12 -18 0 -6 -6 -9 -12 -6
-7 2 -12 10 -10 16 1 7 -2 10 -8 6 -8 -5 -8 -11 1 -21 6 -7 9 -21 5 -29 -4
-10 1 -15 15 -15 11 0 17 5 14 10 -6 9 8 14 28 11 4 0 7 4 7 10 0 5 5 7 10 4
6 -3 10 1 10 11 0 12 3 14 13 6 10 -9 17 -6 27 8 20 28 26 26 56 -20 16 -24
33 -39 40 -36 7 3 16 0 20 -6 4 -6 3 -8 -4 -4 -6 4 -12 -3 -14 -16 -2 -12 -14
-28 -26 -34 -40 -20 -44 -30 -12 -28 20 1 35 -4 44 -18 7 -10 23 -20 34 -21
13 -1 18 -5 12 -12 -5 -6 -3 -18 6 -29 16 -22 19 -56 5 -56 -6 0 -8 -8 -6 -18
2 -11 -3 -19 -11 -19 -9 0 -12 8 -8 26 4 19 3 22 -4 12 -5 -7 -15 -10 -21 -7
-6 4 -15 -3 -20 -18 -12 -29 -46 -43 -66 -26 -11 9 -12 17 -5 30 6 11 6 21 1
24 -5 3 -8 28 -8 55 1 39 5 48 17 43 12 -4 12 -2 3 8 -16 18 -141 19 -169 2
-13 -8 -33 -10 -49 -6 -20 5 -30 2 -42 -15 -11 -17 -18 -19 -28 -11 -7 6 -11
20 -8 30 3 12 -1 22 -10 26 -9 3 -13 12 -10 20 3 8 0 14 -6 14 -6 0 -11 -6
-11 -12 0 -9 -4 -8 -10 2 -9 13 -11 13 -20 0 -5 -8 -10 -11 -10 -6 0 6 -6 1
-14 -9 -8 -11 -13 -22 -11 -26 2 -3 -6 -5 -17 -5 -29 1 -45 -59 -19 -73 9 -5
13 -12 9 -16 -12 -12 13 -63 34 -68 11 -3 17 -10 14 -16 -4 -5 -2 -12 3 -15 5
-4 12 2 16 13 3 11 13 22 21 25 9 3 12 11 8 17 -4 7 -3 9 3 6 17 -11 3 -57
-15 -50 -10 4 -13 2 -8 -5 4 -7 0 -15 -10 -19 -15 -6 -15 -7 2 -21 18 -13 17
-14 -7 -8 -19 4 -29 1 -33 -10 -3 -8 -10 -13 -15 -9 -5 3 -13 -4 -16 -15 -5
-17 -9 -19 -21 -9 -8 6 -12 14 -10 17 9 8 -45 45 -67 46 -15 1 -22 7 -22 21 1
11 -4 23 -10 27 -6 4 -2 13 10 22 18 13 22 12 48 -12 15 -14 26 -31 24 -37 -2
-5 7 -21 20 -34 24 -26 29 -18 13 23 -7 20 -6 26 8 29 13 4 11 5 -5 6 -12 0
-34 11 -50 24 -15 13 -43 32 -60 42 -18 11 -33 22 -33 26 0 4 -13 12 -30 18
-33 11 -43 36 -11 26 11 -3 22 -1 26 5 3 6 11 7 17 4 7 -4 8 -2 4 5 -4 6 0 18
8 27 15 14 20 11 17 -9 -1 -5 4 -5 10 -1 9 5 10 2 6 -9 -5 -14 -3 -15 13 -5
10 7 16 16 14 20 -3 5 -10 6 -15 3 -5 -4 -9 -3 -10 2 0 4 -2 15 -4 24 -2 14 1
15 26 6 16 -6 24 -14 18 -17 -5 -4 -7 -14 -3 -24 5 -13 9 -14 21 -4 17 14 10
52 -13 76 -14 14 -19 14 -43 -1 -18 -10 -31 -13 -37 -7 -7 7 -18 0 -31 -18
-22 -30 -63 -37 -71 -12 -3 9 1 11 12 7 11 -4 15 -3 11 4 -4 6 -13 8 -20 5 -7
-2 -18 1 -24 7 -14 14 -15 30 -1 22 6 -4 5 4 -1 19 -7 14 -16 23 -20 20 -5 -3
-9 0 -9 5 0 6 5 11 12 11 6 0 9 3 5 6 -3 3 -14 3 -25 0 -22 -7 -24 -64 -3 -90
15 -18 1 -22 -17 -4 -9 9 -15 9 -23 1 -8 -8 -8 -13 0 -17 6 -4 11 -15 10 -24
0 -10 -3 -12 -5 -5 -7 15 -34 5 -34 -12 0 -8 4 -17 10 -20 6 -4 7 1 3 11 -5
13 3 10 30 -10 20 -16 37 -32 37 -37 0 -14 -8 -11 -28 11 -16 17 -22 18 -45 7
-15 -6 -27 -20 -27 -30 0 -10 4 -16 9 -13 4 3 16 -3 26 -14 10 -11 13 -20 7
-20 -6 0 -16 8 -21 18 -10 16 -11 15 -12 -3 -1 -11 -1 -24 0 -28 1 -5 -3 -6
-9 -2 -6 3 -8 11 -5 16 4 5 2 17 -4 26 -9 17 -10 17 -16 0 -4 -9 -5 -26 -2
-37 3 -11 0 -23 -5 -27 -6 -3 -8 -2 -5 3 3 6 2 16 -4 24 -5 8 -9 11 -10 5 -2
-28 -9 -49 -18 -58 -11 -11 -45 -1 -37 11 3 5 -1 9 -9 9 -12 0 -12 -3 -3 -15
12 -14 20 -42 12 -42 -7 0 -26 43 -29 67 -1 14 -7 28 -12 32 -14 9 -24 69 -13
76 5 3 7 12 3 20 -3 8 -1 15 5 15 19 0 6 35 -16 45 -12 5 -22 17 -22 27 0 9
-4 20 -10 23 -5 3 -10 -1 -10 -10 0 -10 -5 -13 -12 -9 -8 5 -9 2 -5 -9 3 -10
2 -17 -3 -17 -6 0 -10 6 -10 13 0 7 -6 22 -14 33 -16 21 -16 23 -2 -76 l6 -45
-31 37 c-17 21 -35 36 -39 33 -5 -3 -30 20 -56 50 -26 30 -52 55 -56 55 -5 0
6 -16 24 -36 18 -20 33 -41 33 -47 0 -7 7 -12 15 -12 8 0 16 -9 18 -21 4 -28
-28 -28 -48 0 -8 12 -15 24 -15 28 0 3 -3 10 -7 14 -8 7 -3 -31 6 -44 3 -5 -1
-9 -9 -9 -11 0 -15 12 -15 43 0 24 -4 46 -10 49 -5 3 -10 -3 -10 -14 0 -12 -4
-21 -8 -21 -5 0 -8 25 -7 55 0 30 -2 51 -5 47 -15 -18 -27 -59 -25 -87 1 -26
-3 -30 -24 -32 -14 -1 -31 3 -38 9 -15 12 -33 2 -33 -19 0 -13 -3 -13 -15 -3
-13 11 -14 10 -10 -2 7 -18 -21 -32 -31 -16 -5 7 -2 8 7 3 8 -5 10 -4 6 0 -4
5 -15 10 -24 11 -12 2 -13 0 -4 -9 14 -14 14 -27 1 -27 -12 0 -52 62 -45 68 3
3 13 -1 22 -9 16 -13 17 -12 5 3 -19 24 -47 19 -48 -9 -1 -13 2 -23 6 -23 5 0
8 -8 7 -18 0 -12 -9 -18 -23 -18 -13 0 -20 4 -18 8 3 5 9 6 14 3 5 -3 11 -1
14 4 9 15 -16 7 -53 -17 -28 -17 -38 -19 -50 -9 -12 10 -14 9 -8 -5 3 -10 3
-19 -1 -22 -4 -2 -50 -7 -102 -10 -72 -6 -105 -13 -135 -30 -22 -13 -65 -31
-95 -42 -30 -10 -62 -25 -70 -34 -21 -23 -67 -50 -84 -50 -8 0 -18 -9 -21 -20
-3 -11 -11 -20 -16 -20 -13 0 -30 -17 -53 -52 -11 -17 -14 -28 -7 -28 6 0 11
5 11 10 0 6 6 10 13 10 6 -1 -6 -18 -28 -38 -47 -43 -75 -84 -75 -109 0 -10
-7 -29 -16 -41 -8 -12 -17 -32 -19 -44 -3 -12 -12 -37 -20 -55 -9 -18 -18 -46
-20 -62 -2 -16 -13 -51 -26 -78 -12 -26 -22 -51 -21 -55 1 -3 -6 -30 -14 -59
-9 -29 -16 -87 -16 -128 1 -41 -4 -84 -10 -95 -12 -22 -17 -70 -21 -184 -1
-51 -6 -75 -17 -82 -8 -5 -18 -6 -22 -4 -9 6 -9 6 -11 -53 -2 -43 9 -69 32
-75 7 -2 15 5 16 15 2 9 -1 15 -6 11 -5 -3 -9 1 -9 9 0 8 -7 18 -16 21 -24 9
-10 19 15 11 12 -3 19 -11 16 -16 -8 -12 19 -11 48 2 18 8 23 17 19 35 -2 13
0 24 6 24 5 0 22 25 36 56 l26 56 -25 30 c-72 86 -82 160 -35 260 17 34 33 77
36 94 5 29 38 61 48 46 2 -4 -12 -48 -31 -97 -38 -97 -55 -165 -42 -165 5 0 9
-6 9 -13 0 -19 37 -50 50 -42 7 4 1 17 -15 37 -36 42 -32 94 12 149 18 22 35
49 38 59 4 12 12 16 25 13 11 -3 20 -9 20 -13 0 -4 9 -10 20 -13 32 -8 23 -26
-24 -46 -32 -14 -46 -27 -55 -52 -17 -48 -14 -69 9 -69 11 0 27 -11 35 -24 19
-28 44 -41 58 -27 13 13 -2 51 -21 52 -14 0 -15 1 -2 7 8 4 15 16 14 28 -1 19
0 19 31 5 36 -18 36 -19 35 -81 -1 -110 -2 -112 -27 -107 -20 4 -23 1 -17 -17
3 -11 13 -27 23 -35 14 -12 14 -13 -7 -8 -19 4 -21 3 -11 -9 6 -8 7 -14 2 -14
-6 0 -23 -12 -39 -28 -20 -19 -28 -35 -26 -52 2 -14 0 -22 -4 -17 -10 9 -44
-22 -44 -40 0 -8 -4 -12 -9 -9 -5 3 -6 -14 -4 -38 3 -26 1 -46 -6 -50 -8 -5
-8 -13 1 -29 10 -20 10 -21 -5 -8 -15 12 -17 9 -17 -28 0 -23 -4 -40 -9 -37
-4 3 -6 -5 -4 -18 3 -13 0 -27 -6 -30 -14 -9 -73 94 -67 118 4 14 2 16 -6 8
-8 -8 -14 -6 -22 10 -6 12 -25 27 -41 34 -28 11 -31 10 -41 -11 -11 -23 -11
-23 10 -10 21 14 21 13 21 -24 0 -37 0 -38 -37 -35 -28 2 -36 -1 -31 -12 3 -8
9 -12 14 -9 4 3 3 -8 -2 -25 -6 -16 -17 -30 -24 -30 -18 0 -26 -37 -11 -50 7
-5 17 -6 21 -2 5 4 5 2 2 -4 -6 -10 44 -56 108 -101 17 -11 77 -44 135 -73
119 -61 265 -153 295 -186 11 -12 37 -27 58 -34 22 -7 35 -16 30 -23 -4 -6 0
-8 10 -4 9 3 18 0 21 -9 3 -9 10 -12 16 -9 5 3 10 2 10 -2 0 -5 8 -13 18 -18
50 -27 139 -66 161 -72 26 -6 68 -32 107 -66 19 -16 23 -16 50 -2 16 8 37 15
47 15 12 0 16 5 11 13 -5 9 -4 9 6 0 8 -7 19 -9 29 -4 9 5 34 12 56 15 22 4
54 9 70 12 17 3 39 7 50 8 11 2 19 8 18 13 -1 6 10 8 24 5 18 -3 24 -1 19 7
-9 15 7 14 22 -1 9 -9 12 -8 12 5 0 9 5 17 11 17 8 0 7 5 -1 15 -11 13 -10 14
1 10 15 -5 26 15 53 94 8 25 12 49 9 54 -3 6 -1 7 5 3 7 -4 10 5 10 26 -1 17
4 34 10 36 7 2 12 8 12 13 0 6 -5 7 -12 3 -7 -4 -8 -3 -4 4 4 6 13 9 21 5 17
-6 21 12 5 22 -13 8 -120 -100 -120 -120 0 -9 -4 -14 -9 -10 -5 3 -12 1 -16
-4 -3 -6 -13 -7 -23 -4 -9 3 -14 3 -10 -2 4 -4 0 -14 -10 -21 -14 -11 -21 -9
-39 8 -21 20 -23 20 -23 4 0 -15 -3 -16 -15 -6 -9 7 -15 8 -15 2 0 -6 -10 -7
-28 -3 -23 7 -27 13 -28 47 0 37 -2 39 -36 42 -34 3 -78 32 -49 32 30 0 -15
71 -49 78 -8 2 -17 8 -18 13 -2 5 -8 7 -13 3 -5 -3 -9 2 -9 11 0 11 -5 15 -15
11 -9 -3 -15 0 -15 9 0 8 -4 15 -10 15 -5 0 -6 -7 -3 -17 4 -11 3 -14 -6 -9
-7 5 -10 14 -7 22 3 8 -3 23 -13 33 -11 11 -17 22 -13 25 6 6 -27 35 -40 36
-5 0 -8 -8 -8 -17 0 -37 -27 22 -35 74 -6 44 -4 54 9 59 9 4 24 -1 34 -9 12
-11 22 -13 35 -6 11 6 23 7 34 0 12 -6 21 -5 31 7 7 10 11 11 7 5 -3 -7 -1
-13 4 -13 18 0 26 5 23 13 -6 19 24 3 67 -38 54 -51 103 -71 121 -51 14 18 83
11 136 -13 48 -23 95 -27 124 -11 28 15 59 -7 66 -47 3 -18 10 -33 15 -33 5 0
9 -7 9 -15 0 -33 48 19 81 87 29 60 31 71 25 125 -4 32 -10 78 -12 103 -5 51
-8 55 -25 44 -7 -4 -36 -6 -63 -4 -28 1 -60 3 -72 3 -15 1 -20 6 -16 19 3 11
-3 25 -14 34 -11 9 -12 12 -4 8 8 -4 12 -3 7 1 -4 5 -15 10 -25 11 -67 8 -111
17 -134 27 -28 12 -38 27 -18 27 6 0 10 9 10 21 0 11 5 17 10 14 6 -3 10 -1
10 4 0 6 14 11 31 11 20 0 28 -4 23 -12 -12 -19 77 0 92 20 7 9 10 20 8 24 -3
5 0 8 5 8 6 0 11 5 11 11 0 6 -7 9 -15 5 -8 -3 -14 0 -12 7 1 6 -8 13 -20 15
-13 2 -23 10 -23 18 0 17 22 18 38 2 9 -9 12 -8 12 4 0 9 -7 19 -16 22 -21 8
-47 -13 -41 -34 6 -23 -20 -45 -38 -30 -9 7 -15 8 -20 0 -9 -15 -35 -12 -35 5
0 23 -21 18 -67 -18 -103 -79 -136 -96 -219 -116 -62 -15 -118 -59 -135 -106
-7 -19 -17 -35 -22 -35 -4 0 -6 -9 -2 -20 4 -13 -1 -25 -14 -37 -12 -10 -21
-22 -21 -28 0 -5 -11 -18 -24 -27 l-23 -17 1 42 c1 33 5 42 18 41 10 -1 14 4
11 12 -3 8 0 14 6 14 6 0 11 -4 11 -10 0 -5 4 -10 9 -10 14 0 -6 53 -30 79
-11 11 -31 21 -44 21 -17 0 -25 6 -25 17 0 13 -3 14 -12 5 -8 -8 -8 -15 0 -24
7 -9 7 -19 2 -28 -8 -13 -10 -12 -10 3 0 9 -4 17 -9 17 -5 0 -7 -9 -4 -20 3
-11 0 -20 -6 -20 -11 0 -10 -55 2 -67 4 -3 7 -11 7 -17 0 -6 -4 -5 -9 2 -4 8
-12 14 -17 15 -5 1 -8 8 -8 15 3 19 -6 14 -15 -10 -8 -21 -9 -21 -24 12 -19
41 -17 89 7 144 17 40 14 56 -10 56 -9 0 -14 11 -14 30 0 17 -4 30 -10 30 -19
0 -10 52 13 71 14 12 18 21 11 26 -6 5 -13 16 -17 25 -4 10 -12 15 -21 12 -8
-3 -12 -12 -9 -20 4 -10 0 -12 -11 -8 -21 8 -28 34 -17 72 7 23 6 32 -2 32 -7
0 -5 5 5 10 10 7 20 35 28 82 14 81 36 141 50 133 5 -3 11 -1 14 4 4 5 2 12
-3 16 -13 8 -2 35 12 32 7 -1 13 10 15 26 2 15 9 27 15 27 15 0 42 40 39 57
-2 7 7 17 19 23 15 8 19 9 15 1 -5 -7 1 -11 14 -11 12 0 19 4 15 9 -7 12 22
41 40 41 7 0 15 4 17 8 2 5 17 15 33 23 36 17 57 78 37 109 -12 20 -6 76 10
96 5 7 3 14 -5 17 -19 7 -9 75 13 87 16 9 202 24 275 23 105 -2 150 -8 244
-34 131 -37 182 -60 246 -113 63 -51 77 -67 116 -128 61 -95 82 -238 63 -427
l-7 -62 -26 24 c-50 45 -135 64 -147 32 -4 -8 -12 -15 -20 -15 -8 0 -14 -9
-14 -19 0 -14 14 -23 56 -37 89 -28 145 -84 124 -123 -7 -14 -7 -22 1 -27 8
-4 7 -9 -2 -15 -11 -7 -9 -9 6 -9 44 1 93 69 74 103 -7 11 -6 17 0 17 5 0 13
20 17 45 6 42 15 51 47 46 14 -2 7 18 -11 31 -10 7 -17 22 -17 33 0 11 -6 27
-14 35 -13 13 -12 15 2 18 25 5 21 25 -12 56 -20 19 -29 38 -29 57 1 33 5 35
29 13 17 -15 18 -15 12 12 -3 16 -6 41 -5 57 1 20 -4 27 -18 28 -33 2 -38 4
-47 13 -5 5 -3 6 5 2 11 -6 17 5 13 26 0 4 7 4 16 1 9 -4 14 -2 11 3 -3 5 4
18 15 29 11 11 17 15 13 8 -3 -6 -2 -14 4 -18 9 -6 15 8 11 29 -1 5 4 4 13 -3
20 -17 30 3 14 29 -7 11 -18 20 -23 20 -6 0 -11 19 -12 41 -2 45 17 75 42 65
17 -6 21 -36 5 -36 -5 0 -7 -7 -4 -15 4 -8 11 -12 18 -8 6 4 4 -1 -4 -11 -13
-16 -12 -20 5 -32 25 -18 33 -18 37 4 3 15 6 14 16 -6 7 -12 9 -22 5 -21 -20
3 -25 -2 -14 -15 9 -11 6 -17 -14 -30 -14 -9 -25 -24 -25 -34 1 -24 22 -50 37
-45 19 7 60 -30 57 -51 -1 -10 1 -15 4 -11 4 4 8 11 8 16 1 5 2 15 3 22 1 6 9
0 17 -15 8 -16 17 -28 20 -28 3 0 3 4 0 9 -3 5 1 14 9 21 8 7 12 16 9 22 -3 5
8 14 24 20 32 12 51 48 26 48 -8 0 -14 10 -14 24 0 26 -36 42 -71 31 -13 -4
-19 -2 -19 9 0 9 5 16 11 16 5 0 7 -5 3 -12 -5 -7 -3 -8 5 -4 7 5 10 10 7 14
-3 3 2 11 12 18 16 12 16 13 0 19 -10 4 -18 12 -18 18 0 6 -7 19 -17 29 -9 10
-11 18 -5 18 6 0 12 -4 14 -9 2 -4 14 -12 28 -16 l25 -7 -27 28 c-24 27 -25
31 -13 55 14 25 43 45 52 35 15 -14 20 -77 8 -93 -10 -13 -10 -22 -3 -31 8 -9
7 -11 -6 -6 -9 3 -16 2 -16 -4 0 -12 29 -26 50 -23 10 1 9 -2 -4 -10 -14 -9
-20 -8 -27 2 -5 8 -9 9 -9 3 0 -5 13 -20 29 -32 30 -22 64 -79 56 -92 -11 -18
26 -17 60 1 l38 21 -6 -31 c-5 -24 -2 -33 15 -45 28 -20 38 -11 12 10 -14 11
-16 17 -6 21 10 4 10 8 0 20 -10 12 -9 17 4 24 10 5 24 16 32 24 16 17 26 19
26 7 0 -5 -10 -14 -22 -21 l-23 -11 23 6 c12 3 22 2 21 -3 -4 -14 19 -61 32
-65 9 -3 9 -9 0 -26 -10 -18 -9 -23 4 -28 9 -4 14 -13 11 -20 -3 -7 2 -17 10
-22 14 -8 14 -11 -1 -25 -9 -10 -21 -15 -26 -12 -5 4 -9 1 -9 -4 0 -14 3 -14
36 1 23 11 28 10 40 -7 8 -10 14 -14 14 -9 0 6 -5 15 -12 22 -7 7 -8 12 -4 12
5 0 4 6 -1 13 -14 17 -25 66 -17 78 4 6 11 6 20 -2 11 -9 14 -8 14 2 0 9 3 10
8 4 4 -5 16 -12 27 -14 20 -3 20 -3 1 18 -11 12 -25 21 -31 21 -20 0 -37 27
-33 51 3 22 4 22 21 5 16 -17 17 -16 18 6 1 13 1 30 0 38 -1 9 6 5 18 -10 54
-69 78 -91 85 -75 3 9 -1 18 -10 22 -11 4 -12 8 -4 13 8 5 -4 24 -39 59 -28
28 -51 56 -51 61 0 16 27 11 34 -6 6 -17 26 -10 26 9 0 7 -4 6 -10 -3 -8 -13
-10 -13 -10 1 0 9 -7 22 -15 29 -9 7 -13 20 -10 28 4 12 3 13 -10 2 -15 -13
-17 -10 -18 25 0 45 3 66 12 61 5 -3 3 13 -4 37 -11 37 -16 42 -39 39 -20 -2
-26 2 -26 18 0 12 -7 20 -16 20 -12 0 -14 -3 -6 -13 6 -7 10 -28 10 -46 -1
-33 -2 -34 -17 -14 -12 14 -20 17 -27 9 -6 -6 -9 -17 -6 -24 2 -6 -2 -12 -8
-12 -7 0 -9 -8 -5 -20 4 -11 2 -20 -4 -20 -6 0 -11 -4 -11 -10 0 -5 6 -7 14
-4 9 3 15 -4 18 -20 3 -14 2 -25 -1 -24 -20 2 -31 -4 -31 -17 0 -8 -6 -15 -13
-15 -22 0 -37 -22 -27 -39 6 -13 2 -20 -22 -30 -27 -12 -33 -11 -61 9 -18 13
-26 17 -19 9 18 -19 15 -29 -8 -26 -23 4 -51 27 -32 27 6 0 16 10 23 21 7 15
8 19 0 15 -7 -5 -9 -1 -5 8 8 20 8 20 47 0 22 -12 32 -13 35 -5 2 6 10 18 17
25 12 12 11 16 -5 31 -11 10 -20 24 -20 30 0 7 -7 16 -16 19 -14 5 -15 4 -5
-8 9 -11 9 -16 0 -22 -7 -4 -18 1 -26 11 -17 24 -16 30 2 49 8 8 15 20 15 26
0 6 4 9 9 5 5 -3 12 -1 16 5 4 7 12 7 25 0 12 -6 21 -7 25 0 3 5 12 7 19 4 19
-7 49 25 38 40 -22 26 -23 53 -3 59 11 2 24 0 29 -5 6 -6 12 3 16 23 5 24 9
29 19 21 10 -8 16 -6 26 10 13 21 14 21 27 3 7 -10 11 -22 8 -26 -3 -5 2 -9
10 -9 9 0 16 -5 16 -11 0 -8 4 -8 14 0 15 13 41 -14 106 -108 19 -28 39 -51
44 -51 5 0 4 6 -1 13 -5 6 -24 31 -43 54 -35 45 -35 75 -1 66 12 -3 19 -9 16
-13 -3 -5 3 -15 13 -22 11 -7 18 -20 17 -29 -4 -22 24 -18 37 4 5 10 14 15 19
12 6 -4 9 38 8 109 -1 64 -6 116 -11 116 -4 0 -8 9 -8 21 0 13 4 18 13 13 7
-5 6 -1 -2 10 -14 16 -16 16 -27 2 -10 -14 -13 -14 -32 2 -17 15 -18 21 -9 39
7 12 17 22 22 23 53 6 55 9 55 89 0 50 -3 71 -9 61 -6 -8 -7 -18 -4 -24 4 -5
-1 -7 -10 -3 -10 4 -18 -1 -22 -14 -8 -24 -31 -25 -47 0 -9 15 -15 17 -30 7
-14 -8 -20 -8 -26 1 -10 15 -8 55 2 72 5 8 3 16 -4 21 -9 5 -9 9 -1 14 6 4 11
3 11 -2 0 -10 59 -35 61 -26 1 2 3 13 4 24 1 11 3 23 4 26 0 3 13 -4 27 -15
15 -11 30 -18 35 -15 5 3 9 31 9 63 0 52 -3 61 -25 75 -14 9 -23 21 -20 26 3
5 2 11 -3 14 -14 8 -14 68 0 63 7 -2 12 -11 12 -20 -1 -9 4 -18 12 -21 15 -6
16 32 1 52 -7 9 -6 11 7 6 12 -5 16 0 16 18 0 24 -5 27 -45 20z m-241 -580
c11 -19 -48 -57 -97 -61 -19 -2 6 -21 28 -21 34 0 39 -15 10 -30 -13 -7 -22
-18 -18 -23 3 -6 1 -7 -6 -3 -6 4 -17 4 -24 -2 -13 -10 -52 -9 -79 3 -25 10
-22 51 4 70 21 14 23 14 28 -1 5 -13 8 -10 18 10 6 14 16 26 21 26 5 0 11 9
14 20 4 16 14 20 50 20 25 0 48 -3 51 -8z m-721 -196 c1 -14 6 -26 10 -26 5 0
5 -4 2 -10 -3 -5 -1 -10 6 -10 9 0 9 -3 -1 -15 -6 -8 -10 -22 -7 -32 4 -16 5
-16 6 2 1 11 8 29 16 39 14 19 15 19 35 1 11 -10 17 -21 15 -25 -3 -4 4 -10
15 -13 27 -7 18 -46 -17 -75 -16 -13 -23 -22 -18 -21 16 3 45 -12 40 -21 -3
-5 -1 -12 5 -15 6 -4 9 -1 8 6 -2 7 5 15 15 17 9 2 17 -2 17 -10 0 -21 -30
-59 -41 -52 -6 3 -9 -2 -7 -12 4 -23 -43 -27 -50 -4 -5 13 -3 13 13 0 11 -9 8
0 -9 24 -27 41 -33 66 -15 66 5 0 2 13 -7 30 -14 22 -21 27 -31 18 -9 -7 -14
-7 -17 3 -9 28 -13 68 -7 64 4 -2 13 0 20 4 10 7 9 14 -5 37 -11 15 -13 25 -6
21 6 -5 12 -4 12 2 0 6 -4 11 -10 11 -5 0 -10 10 -10 22 0 32 22 8 23 -26z
m-579 -1395 c3 -4 17 -6 31 -3 15 2 37 -1 50 -8 13 -7 33 -10 44 -7 14 3 21 0
21 -9 0 -7 14 -21 30 -29 25 -13 29 -19 20 -34 -18 -35 -42 -35 -140 5 -25 9
-48 23 -52 30 -5 7 -16 10 -27 7 -25 -6 -35 11 -21 37 11 21 35 27 44 11z"/>
<path d="M2246 2664 c-82 -15 -124 -31 -166 -64 -28 -22 -33 -21 72 -24 40 -1
62 -7 79 -21 19 -17 22 -18 16 -2 -6 17 12 24 26 10 12 -12 -27 -30 -95 -43
-49 -10 -68 -18 -71 -32 -4 -14 1 -18 26 -19 44 -1 74 -13 58 -23 -9 -6 -9
-11 0 -22 9 -11 9 -14 0 -14 -24 0 1 -21 57 -47 31 -14 60 -31 63 -36 4 -5 19
-10 35 -10 16 -1 32 -6 36 -11 8 -12 110 -8 144 4 16 7 22 15 18 27 -3 10 1 7
9 -6 14 -24 15 -24 26 -3 6 11 10 31 8 44 -1 13 3 22 9 21 6 -1 9 8 7 21 -3
15 -18 29 -41 39 -64 27 -160 57 -186 57 -14 0 -31 7 -40 15 -8 8 -19 15 -25
15 -6 0 -11 5 -11 11 0 12 43 1 48 -12 2 -5 8 -9 13 -9 6 0 7 5 4 10 -8 13 9
12 60 -1 22 -5 45 -11 50 -12 21 -5 35 -19 29 -28 -3 -6 4 -7 19 -4 17 5 32
-1 55 -20 18 -15 40 -25 49 -23 10 2 23 -3 30 -12 15 -19 42 -5 60 31 10 20 9
28 -7 54 -10 16 -25 33 -32 37 -44 23 -130 57 -171 67 -27 6 -59 18 -70 26
-35 22 -105 25 -191 9z"/>
<path d="M2795 2316 c-14 -10 -16 -22 -10 -69 8 -63 30 -99 76 -122 42 -22 36
-1 -7 25 -27 15 -34 24 -26 32 15 15 66 12 104 -6 44 -23 56 -20 50 9 -2 14
-7 23 -11 21 -3 -2 -22 9 -41 25 -19 16 -28 29 -20 29 7 0 23 -8 35 -17 12
-10 5 -3 -14 15 -54 48 -71 63 -71 57 0 -2 -11 0 -24 5 -16 6 -29 5 -41 -4z"/>
<path d="M3973 1904 c-13 -21 -14 -30 -5 -45 14 -22 15 -32 3 -25 -14 9 -21
-20 -8 -33 8 -8 7 -11 -6 -11 -18 0 -23 -25 -7 -35 6 -3 10 -1 10 6 0 7 3 10
6 7 10 -10 -8 -78 -19 -71 -7 4 -8 -6 -4 -31 5 -32 4 -36 -9 -25 -17 14 -16
15 -32 -32 -15 -45 -15 -84 1 -127 10 -28 10 -36 0 -39 -26 -9 -12 -25 17 -21
16 3 31 -1 34 -7 5 -15 -19 -107 -26 -99 -4 3 -4 13 -1 22 4 14 3 15 -5 2 -6
-8 -8 -18 -6 -22 3 -4 1 -8 -5 -8 -5 0 -8 -11 -7 -25 4 -33 16 -45 16 -15 0
13 3 21 6 17 10 -9 -5 -59 -16 -52 -17 11 -32 -38 -30 -99 0 -24 -3 -28 -19
-23 -17 4 -22 -1 -28 -32 -10 -50 -6 -62 27 -89 25 -20 28 -28 25 -67 -2 -25
-2 -45 1 -45 2 0 28 9 58 21 l55 20 1 505 c0 277 -2 504 -5 504 -2 0 -12 -12
-22 -26z"/>
<path d="M2236 1615 c-3 -8 -12 -15 -21 -15 -8 0 -15 -4 -15 -9 0 -9 58 -56
70 -56 5 0 12 -3 15 -7 4 -4 15 -3 24 2 10 5 23 5 32 -1 7 -5 10 -9 4 -9 -15
0 78 -55 95 -55 8 0 25 -7 38 -14 21 -11 23 -11 15 6 -7 16 -8 33 -4 67 1 4
12 1 26 -8 31 -21 34 -20 28 4 -5 20 -35 42 -50 38 -4 -1 -18 3 -30 10 -12 7
-26 11 -30 10 -4 -1 -28 7 -53 18 -47 20 -63 21 -92 9 -13 -5 -18 -2 -18 9 0
20 -26 21 -34 1z"/>
<path d="M3930 687 c-36 -18 -64 -36 -64 -42 1 -5 5 -26 9 -45 4 -19 4 -32 0
-28 -4 4 -14 0 -23 -8 -12 -13 -13 -17 -2 -24 9 -6 11 -25 6 -71 -3 -35 -6
-72 -7 -82 -1 -31 -17 -8 -21 30 -3 22 1 43 8 50 7 7 10 21 7 32 -7 26 -33 36
-33 13 -1 -9 -10 -28 -21 -41 -17 -21 -22 -22 -29 -10 -5 7 -7 21 -4 31 2 9 1
19 -3 21 -5 3 -9 -11 -8 -31 0 -29 4 -37 23 -42 13 -3 22 -9 22 -15 -1 -5 -6
-9 -11 -8 -5 2 -8 0 -8 -5 4 -21 -3 -31 -16 -26 -11 5 -15 -1 -15 -18 0 -14
-3 -27 -6 -31 -3 -3 -7 -34 -9 -67 -1 -40 -7 -65 -16 -71 -9 -5 -16 -3 -20 8
-5 15 -7 15 -17 -2 -10 -19 -11 -19 -17 -2 -9 22 -23 22 -21 1 0 -9 -5 -19
-13 -22 -8 -3 -11 0 -7 7 9 14 -58 15 -84 1 -23 -13 -16 -40 11 -40 10 0 19
-4 19 -9 0 -5 13 -12 30 -16 24 -5 27 -9 17 -20 -7 -7 -15 -11 -19 -8 -5 2 -8
-3 -8 -11 0 -9 7 -16 15 -16 8 0 15 -4 15 -10 0 -13 -1 -13 -40 6 -30 16 -33
16 -42 0 -5 -9 -14 -16 -21 -16 -7 0 -6 4 3 10 13 9 13 10 0 11 -68 8 -97 0
-68 -17 8 -5 6 -10 -8 -15 -17 -7 -16 -8 6 -10 14 -1 44 -1 67 0 23 2 50 -2
61 -8 15 -8 29 -7 56 4 50 21 76 19 76 -5 0 -19 7 -20 150 -20 l150 0 0 360
c0 198 -1 360 -2 359 -2 0 -32 -14 -68 -32z"/>
</g>
</svg>
